<mxfile host="app.diagrams.net" modified="2021-06-17T23:59:18.005Z" agent="5.0 (Macintosh; Intel Mac OS X 10_14_6) AppleWebKit/605.1.15 (KHTML, like Gecko) Version/14.0.3 Safari/605.1.15" etag="cAWzjI90BqvBU75xi3j4" version="14.8.0" type="github">
  <diagram id="6FSRVtxVRcEEBNHckEEs" name="Page-1">
    <mxGraphModel dx="1186" dy="723" grid="1" gridSize="10" guides="1" tooltips="1" connect="1" arrows="1" fold="1" page="1" pageScale="1" pageWidth="1100" pageHeight="850" background="none" math="0" shadow="0">
      <root>
        <mxCell id="0" />
        <mxCell id="1" parent="0" />
        <mxCell id="1I366Hc9zdINXWI0nnkP-1" value="" style="rounded=1;whiteSpace=wrap;html=1;" vertex="1" parent="1">
          <mxGeometry x="110" y="360" width="50" height="40" as="geometry" />
        </mxCell>
        <mxCell id="1I366Hc9zdINXWI0nnkP-2" value="" style="edgeStyle=orthogonalEdgeStyle;rounded=0;orthogonalLoop=1;jettySize=auto;html=1;exitX=0.5;exitY=0;exitDx=0;exitDy=0;" edge="1" parent="1" source="1I366Hc9zdINXWI0nnkP-8" target="1I366Hc9zdINXWI0nnkP-1">
          <mxGeometry relative="1" as="geometry">
            <mxPoint x="150" y="430" as="sourcePoint" />
          </mxGeometry>
        </mxCell>
        <mxCell id="1I366Hc9zdINXWI0nnkP-3" value="" style="endArrow=none;dashed=1;html=1;dashPattern=1 3;strokeWidth=2;fillColor=#dae8fc;strokeColor=#6c8ebf;" edge="1" parent="1">
          <mxGeometry width="50" height="50" relative="1" as="geometry">
            <mxPoint x="320" y="410" as="sourcePoint" />
            <mxPoint x="320" y="350" as="targetPoint" />
          </mxGeometry>
        </mxCell>
        <mxCell id="1I366Hc9zdINXWI0nnkP-4" value="" style="endArrow=none;dashed=1;html=1;dashPattern=1 3;strokeWidth=2;" edge="1" parent="1">
          <mxGeometry width="50" height="50" relative="1" as="geometry">
            <mxPoint x="320" y="350" as="sourcePoint" />
            <mxPoint x="10" y="350" as="targetPoint" />
            <Array as="points">
              <mxPoint x="240" y="350" />
            </Array>
          </mxGeometry>
        </mxCell>
        <mxCell id="1I366Hc9zdINXWI0nnkP-5" value="" style="endArrow=none;dashed=1;html=1;dashPattern=1 3;strokeWidth=2;" edge="1" parent="1">
          <mxGeometry width="50" height="50" relative="1" as="geometry">
            <mxPoint x="320" y="410" as="sourcePoint" />
            <mxPoint x="10" y="410" as="targetPoint" />
          </mxGeometry>
        </mxCell>
        <mxCell id="1I366Hc9zdINXWI0nnkP-6" value="" style="endArrow=none;dashed=1;html=1;dashPattern=1 3;strokeWidth=2;" edge="1" parent="1">
          <mxGeometry width="50" height="50" relative="1" as="geometry">
            <mxPoint x="10" y="410" as="sourcePoint" />
            <mxPoint x="10" y="350" as="targetPoint" />
            <Array as="points">
              <mxPoint x="10" y="380" />
            </Array>
          </mxGeometry>
        </mxCell>
        <mxCell id="1I366Hc9zdINXWI0nnkP-7" value="Encoder" style="text;html=1;strokeColor=none;fillColor=none;align=center;verticalAlign=middle;whiteSpace=wrap;rounded=0;" vertex="1" parent="1">
          <mxGeometry x="20" y="370" width="80" height="20" as="geometry" />
        </mxCell>
        <mxCell id="1I366Hc9zdINXWI0nnkP-8" value="" style="rounded=1;whiteSpace=wrap;html=1;" vertex="1" parent="1">
          <mxGeometry x="110" y="430" width="50" height="40" as="geometry" />
        </mxCell>
        <mxCell id="1I366Hc9zdINXWI0nnkP-9" value="" style="edgeStyle=orthogonalEdgeStyle;rounded=0;orthogonalLoop=1;jettySize=auto;html=1;" edge="1" parent="1" target="1I366Hc9zdINXWI0nnkP-8">
          <mxGeometry relative="1" as="geometry">
            <mxPoint x="135" y="500" as="sourcePoint" />
          </mxGeometry>
        </mxCell>
        <mxCell id="1I366Hc9zdINXWI0nnkP-10" value="" style="endArrow=none;dashed=1;html=1;dashPattern=1 3;strokeWidth=2;fillColor=#dae8fc;strokeColor=#6c8ebf;" edge="1" parent="1">
          <mxGeometry width="50" height="50" relative="1" as="geometry">
            <mxPoint x="320" y="480" as="sourcePoint" />
            <mxPoint x="320" y="420" as="targetPoint" />
          </mxGeometry>
        </mxCell>
        <mxCell id="1I366Hc9zdINXWI0nnkP-11" value="" style="endArrow=none;dashed=1;html=1;dashPattern=1 3;strokeWidth=2;" edge="1" parent="1">
          <mxGeometry width="50" height="50" relative="1" as="geometry">
            <mxPoint x="320" y="420" as="sourcePoint" />
            <mxPoint x="10" y="420" as="targetPoint" />
            <Array as="points">
              <mxPoint x="240" y="420" />
            </Array>
          </mxGeometry>
        </mxCell>
        <mxCell id="1I366Hc9zdINXWI0nnkP-12" value="" style="endArrow=none;dashed=1;html=1;dashPattern=1 3;strokeWidth=2;" edge="1" parent="1">
          <mxGeometry width="50" height="50" relative="1" as="geometry">
            <mxPoint x="320" y="480" as="sourcePoint" />
            <mxPoint x="10" y="480" as="targetPoint" />
          </mxGeometry>
        </mxCell>
        <mxCell id="1I366Hc9zdINXWI0nnkP-13" value="" style="endArrow=none;dashed=1;html=1;dashPattern=1 3;strokeWidth=2;" edge="1" parent="1">
          <mxGeometry width="50" height="50" relative="1" as="geometry">
            <mxPoint x="10" y="480" as="sourcePoint" />
            <mxPoint x="10" y="420" as="targetPoint" />
            <Array as="points">
              <mxPoint x="10" y="450" />
            </Array>
          </mxGeometry>
        </mxCell>
        <mxCell id="1I366Hc9zdINXWI0nnkP-14" value="Embed" style="text;html=1;strokeColor=none;fillColor=none;align=center;verticalAlign=middle;whiteSpace=wrap;rounded=0;" vertex="1" parent="1">
          <mxGeometry x="20" y="440" width="80" height="20" as="geometry" />
        </mxCell>
        <mxCell id="1I366Hc9zdINXWI0nnkP-15" value="" style="rounded=1;whiteSpace=wrap;html=1;" vertex="1" parent="1">
          <mxGeometry x="180" y="360" width="50" height="40" as="geometry" />
        </mxCell>
        <mxCell id="1I366Hc9zdINXWI0nnkP-16" value="" style="edgeStyle=orthogonalEdgeStyle;rounded=0;orthogonalLoop=1;jettySize=auto;html=1;exitX=0.5;exitY=0;exitDx=0;exitDy=0;" edge="1" parent="1" source="1I366Hc9zdINXWI0nnkP-17" target="1I366Hc9zdINXWI0nnkP-15">
          <mxGeometry relative="1" as="geometry">
            <mxPoint x="220" y="430" as="sourcePoint" />
          </mxGeometry>
        </mxCell>
        <mxCell id="1I366Hc9zdINXWI0nnkP-17" value="" style="rounded=1;whiteSpace=wrap;html=1;" vertex="1" parent="1">
          <mxGeometry x="180" y="430" width="50" height="40" as="geometry" />
        </mxCell>
        <mxCell id="1I366Hc9zdINXWI0nnkP-18" value="" style="edgeStyle=orthogonalEdgeStyle;rounded=0;orthogonalLoop=1;jettySize=auto;html=1;" edge="1" parent="1" target="1I366Hc9zdINXWI0nnkP-17">
          <mxGeometry relative="1" as="geometry">
            <mxPoint x="205" y="500" as="sourcePoint" />
          </mxGeometry>
        </mxCell>
        <mxCell id="1I366Hc9zdINXWI0nnkP-19" value="" style="rounded=1;whiteSpace=wrap;html=1;" vertex="1" parent="1">
          <mxGeometry x="250" y="360" width="50" height="40" as="geometry" />
        </mxCell>
        <mxCell id="1I366Hc9zdINXWI0nnkP-20" value="" style="edgeStyle=orthogonalEdgeStyle;rounded=0;orthogonalLoop=1;jettySize=auto;html=1;exitX=0.5;exitY=0;exitDx=0;exitDy=0;" edge="1" parent="1" source="1I366Hc9zdINXWI0nnkP-21" target="1I366Hc9zdINXWI0nnkP-19">
          <mxGeometry relative="1" as="geometry">
            <mxPoint x="290" y="430" as="sourcePoint" />
          </mxGeometry>
        </mxCell>
        <mxCell id="1I366Hc9zdINXWI0nnkP-21" value="" style="rounded=1;whiteSpace=wrap;html=1;" vertex="1" parent="1">
          <mxGeometry x="250" y="430" width="50" height="40" as="geometry" />
        </mxCell>
        <mxCell id="1I366Hc9zdINXWI0nnkP-22" value="" style="edgeStyle=orthogonalEdgeStyle;rounded=0;orthogonalLoop=1;jettySize=auto;html=1;" edge="1" parent="1" target="1I366Hc9zdINXWI0nnkP-21">
          <mxGeometry relative="1" as="geometry">
            <mxPoint x="275" y="500" as="sourcePoint" />
          </mxGeometry>
        </mxCell>
        <mxCell id="1I366Hc9zdINXWI0nnkP-23" value="" style="endArrow=classic;html=1;exitX=1;exitY=0.5;exitDx=0;exitDy=0;entryX=0;entryY=0.5;entryDx=0;entryDy=0;" edge="1" parent="1" source="1I366Hc9zdINXWI0nnkP-1" target="1I366Hc9zdINXWI0nnkP-15">
          <mxGeometry width="50" height="50" relative="1" as="geometry">
            <mxPoint x="400" y="570" as="sourcePoint" />
            <mxPoint x="450" y="520" as="targetPoint" />
          </mxGeometry>
        </mxCell>
        <mxCell id="1I366Hc9zdINXWI0nnkP-24" value="" style="endArrow=classic;html=1;exitX=1;exitY=0.5;exitDx=0;exitDy=0;entryX=0;entryY=0.5;entryDx=0;entryDy=0;" edge="1" parent="1" source="1I366Hc9zdINXWI0nnkP-15" target="1I366Hc9zdINXWI0nnkP-19">
          <mxGeometry width="50" height="50" relative="1" as="geometry">
            <mxPoint x="400" y="570" as="sourcePoint" />
            <mxPoint x="450" y="520" as="targetPoint" />
          </mxGeometry>
        </mxCell>
        <mxCell id="1I366Hc9zdINXWI0nnkP-25" value="" style="rounded=1;whiteSpace=wrap;html=1;" vertex="1" parent="1">
          <mxGeometry x="410" y="290" width="50" height="40" as="geometry" />
        </mxCell>
        <mxCell id="1I366Hc9zdINXWI0nnkP-26" value="" style="edgeStyle=orthogonalEdgeStyle;rounded=0;orthogonalLoop=1;jettySize=auto;html=1;exitX=0.5;exitY=0;exitDx=0;exitDy=0;" edge="1" parent="1" source="1I366Hc9zdINXWI0nnkP-31" target="1I366Hc9zdINXWI0nnkP-25">
          <mxGeometry relative="1" as="geometry">
            <mxPoint x="450" y="360" as="sourcePoint" />
          </mxGeometry>
        </mxCell>
        <mxCell id="1I366Hc9zdINXWI0nnkP-27" value="" style="endArrow=none;dashed=1;html=1;dashPattern=1 3;strokeWidth=2;fillColor=#dae8fc;strokeColor=#6c8ebf;" edge="1" parent="1">
          <mxGeometry width="50" height="50" relative="1" as="geometry">
            <mxPoint x="760" y="340" as="sourcePoint" />
            <mxPoint x="760" y="280" as="targetPoint" />
          </mxGeometry>
        </mxCell>
        <mxCell id="1I366Hc9zdINXWI0nnkP-28" value="" style="endArrow=none;dashed=1;html=1;dashPattern=1 3;strokeWidth=2;" edge="1" parent="1">
          <mxGeometry width="50" height="50" relative="1" as="geometry">
            <mxPoint x="760" y="280" as="sourcePoint" />
            <mxPoint x="390" y="280" as="targetPoint" />
            <Array as="points">
              <mxPoint x="620" y="280" />
            </Array>
          </mxGeometry>
        </mxCell>
        <mxCell id="1I366Hc9zdINXWI0nnkP-29" value="" style="endArrow=none;dashed=1;html=1;dashPattern=1 3;strokeWidth=2;" edge="1" parent="1">
          <mxGeometry width="50" height="50" relative="1" as="geometry">
            <mxPoint x="760" y="340" as="sourcePoint" />
            <mxPoint x="390" y="340" as="targetPoint" />
          </mxGeometry>
        </mxCell>
        <mxCell id="1I366Hc9zdINXWI0nnkP-30" value="" style="endArrow=none;dashed=1;html=1;dashPattern=1 3;strokeWidth=2;" edge="1" parent="1">
          <mxGeometry width="50" height="50" relative="1" as="geometry">
            <mxPoint x="390" y="340" as="sourcePoint" />
            <mxPoint x="390" y="280" as="targetPoint" />
            <Array as="points">
              <mxPoint x="390" y="310" />
            </Array>
          </mxGeometry>
        </mxCell>
        <mxCell id="1I366Hc9zdINXWI0nnkP-31" value="" style="rounded=1;whiteSpace=wrap;html=1;" vertex="1" parent="1">
          <mxGeometry x="410" y="360" width="50" height="40" as="geometry" />
        </mxCell>
        <mxCell id="1I366Hc9zdINXWI0nnkP-32" value="" style="edgeStyle=orthogonalEdgeStyle;rounded=0;orthogonalLoop=1;jettySize=auto;html=1;" edge="1" parent="1" target="1I366Hc9zdINXWI0nnkP-31">
          <mxGeometry relative="1" as="geometry">
            <mxPoint x="435" y="430" as="sourcePoint" />
          </mxGeometry>
        </mxCell>
        <mxCell id="1I366Hc9zdINXWI0nnkP-33" value="" style="endArrow=none;dashed=1;html=1;dashPattern=1 3;strokeWidth=2;fillColor=#dae8fc;strokeColor=#6c8ebf;" edge="1" parent="1">
          <mxGeometry width="50" height="50" relative="1" as="geometry">
            <mxPoint x="760" y="410" as="sourcePoint" />
            <mxPoint x="760" y="350" as="targetPoint" />
          </mxGeometry>
        </mxCell>
        <mxCell id="1I366Hc9zdINXWI0nnkP-34" value="" style="endArrow=none;dashed=1;html=1;dashPattern=1 3;strokeWidth=2;" edge="1" parent="1">
          <mxGeometry width="50" height="50" relative="1" as="geometry">
            <mxPoint x="760" y="350" as="sourcePoint" />
            <mxPoint x="390" y="350" as="targetPoint" />
            <Array as="points">
              <mxPoint x="620" y="350" />
            </Array>
          </mxGeometry>
        </mxCell>
        <mxCell id="1I366Hc9zdINXWI0nnkP-35" value="" style="endArrow=none;dashed=1;html=1;dashPattern=1 3;strokeWidth=2;" edge="1" parent="1">
          <mxGeometry width="50" height="50" relative="1" as="geometry">
            <mxPoint x="760" y="410" as="sourcePoint" />
            <mxPoint x="390" y="410" as="targetPoint" />
          </mxGeometry>
        </mxCell>
        <mxCell id="1I366Hc9zdINXWI0nnkP-36" value="" style="endArrow=none;dashed=1;html=1;dashPattern=1 3;strokeWidth=2;" edge="1" parent="1">
          <mxGeometry width="50" height="50" relative="1" as="geometry">
            <mxPoint x="390" y="410" as="sourcePoint" />
            <mxPoint x="390" y="350" as="targetPoint" />
            <Array as="points">
              <mxPoint x="390" y="380" />
            </Array>
          </mxGeometry>
        </mxCell>
        <mxCell id="1I366Hc9zdINXWI0nnkP-37" value="" style="rounded=1;whiteSpace=wrap;html=1;" vertex="1" parent="1">
          <mxGeometry x="480" y="290" width="50" height="40" as="geometry" />
        </mxCell>
        <mxCell id="1I366Hc9zdINXWI0nnkP-38" value="" style="edgeStyle=orthogonalEdgeStyle;rounded=0;orthogonalLoop=1;jettySize=auto;html=1;exitX=0.5;exitY=0;exitDx=0;exitDy=0;" edge="1" parent="1" source="1I366Hc9zdINXWI0nnkP-39" target="1I366Hc9zdINXWI0nnkP-37">
          <mxGeometry relative="1" as="geometry">
            <mxPoint x="520" y="360" as="sourcePoint" />
          </mxGeometry>
        </mxCell>
        <mxCell id="1I366Hc9zdINXWI0nnkP-39" value="" style="rounded=1;whiteSpace=wrap;html=1;" vertex="1" parent="1">
          <mxGeometry x="480" y="360" width="50" height="40" as="geometry" />
        </mxCell>
        <mxCell id="1I366Hc9zdINXWI0nnkP-40" value="" style="edgeStyle=orthogonalEdgeStyle;rounded=0;orthogonalLoop=1;jettySize=auto;html=1;" edge="1" parent="1" target="1I366Hc9zdINXWI0nnkP-39">
          <mxGeometry relative="1" as="geometry">
            <mxPoint x="505" y="430" as="sourcePoint" />
          </mxGeometry>
        </mxCell>
        <mxCell id="1I366Hc9zdINXWI0nnkP-41" value="" style="rounded=1;whiteSpace=wrap;html=1;" vertex="1" parent="1">
          <mxGeometry x="550" y="290" width="50" height="40" as="geometry" />
        </mxCell>
        <mxCell id="1I366Hc9zdINXWI0nnkP-42" value="" style="edgeStyle=orthogonalEdgeStyle;rounded=0;orthogonalLoop=1;jettySize=auto;html=1;exitX=0.5;exitY=0;exitDx=0;exitDy=0;" edge="1" parent="1" source="1I366Hc9zdINXWI0nnkP-43" target="1I366Hc9zdINXWI0nnkP-41">
          <mxGeometry relative="1" as="geometry">
            <mxPoint x="590" y="360" as="sourcePoint" />
          </mxGeometry>
        </mxCell>
        <mxCell id="1I366Hc9zdINXWI0nnkP-43" value="" style="rounded=1;whiteSpace=wrap;html=1;" vertex="1" parent="1">
          <mxGeometry x="550" y="360" width="50" height="40" as="geometry" />
        </mxCell>
        <mxCell id="1I366Hc9zdINXWI0nnkP-44" value="" style="edgeStyle=orthogonalEdgeStyle;rounded=0;orthogonalLoop=1;jettySize=auto;html=1;" edge="1" parent="1" target="1I366Hc9zdINXWI0nnkP-43">
          <mxGeometry relative="1" as="geometry">
            <mxPoint x="575" y="430" as="sourcePoint" />
          </mxGeometry>
        </mxCell>
        <mxCell id="1I366Hc9zdINXWI0nnkP-45" value="" style="rounded=1;whiteSpace=wrap;html=1;" vertex="1" parent="1">
          <mxGeometry x="620" y="290" width="50" height="40" as="geometry" />
        </mxCell>
        <mxCell id="1I366Hc9zdINXWI0nnkP-46" value="" style="edgeStyle=orthogonalEdgeStyle;rounded=0;orthogonalLoop=1;jettySize=auto;html=1;exitX=0.5;exitY=0;exitDx=0;exitDy=0;" edge="1" parent="1" source="1I366Hc9zdINXWI0nnkP-47" target="1I366Hc9zdINXWI0nnkP-45">
          <mxGeometry relative="1" as="geometry">
            <mxPoint x="660" y="360" as="sourcePoint" />
          </mxGeometry>
        </mxCell>
        <mxCell id="1I366Hc9zdINXWI0nnkP-47" value="" style="rounded=1;whiteSpace=wrap;html=1;" vertex="1" parent="1">
          <mxGeometry x="620" y="360" width="50" height="40" as="geometry" />
        </mxCell>
        <mxCell id="1I366Hc9zdINXWI0nnkP-48" value="" style="edgeStyle=orthogonalEdgeStyle;rounded=0;orthogonalLoop=1;jettySize=auto;html=1;" edge="1" parent="1" target="1I366Hc9zdINXWI0nnkP-47">
          <mxGeometry relative="1" as="geometry">
            <mxPoint x="645" y="430" as="sourcePoint" />
          </mxGeometry>
        </mxCell>
        <mxCell id="1I366Hc9zdINXWI0nnkP-49" value="Decoder" style="text;html=1;strokeColor=none;fillColor=none;align=center;verticalAlign=middle;whiteSpace=wrap;rounded=0;" vertex="1" parent="1">
          <mxGeometry x="680" y="370" width="80" height="20" as="geometry" />
        </mxCell>
        <mxCell id="1I366Hc9zdINXWI0nnkP-50" value="" style="endArrow=classic;html=1;exitX=1;exitY=0.5;exitDx=0;exitDy=0;entryX=0;entryY=0.5;entryDx=0;entryDy=0;" edge="1" parent="1" source="1I366Hc9zdINXWI0nnkP-19" target="1I366Hc9zdINXWI0nnkP-31">
          <mxGeometry width="50" height="50" relative="1" as="geometry">
            <mxPoint x="400" y="570" as="sourcePoint" />
            <mxPoint x="450" y="520" as="targetPoint" />
          </mxGeometry>
        </mxCell>
        <mxCell id="1I366Hc9zdINXWI0nnkP-51" value="" style="endArrow=classic;html=1;exitX=1;exitY=0.5;exitDx=0;exitDy=0;entryX=0;entryY=0.5;entryDx=0;entryDy=0;" edge="1" parent="1" source="1I366Hc9zdINXWI0nnkP-31" target="1I366Hc9zdINXWI0nnkP-39">
          <mxGeometry width="50" height="50" relative="1" as="geometry">
            <mxPoint x="400" y="570" as="sourcePoint" />
            <mxPoint x="450" y="520" as="targetPoint" />
          </mxGeometry>
        </mxCell>
        <mxCell id="1I366Hc9zdINXWI0nnkP-52" value="" style="endArrow=classic;html=1;exitX=1;exitY=0.5;exitDx=0;exitDy=0;entryX=0;entryY=0.5;entryDx=0;entryDy=0;" edge="1" parent="1" source="1I366Hc9zdINXWI0nnkP-39" target="1I366Hc9zdINXWI0nnkP-43">
          <mxGeometry width="50" height="50" relative="1" as="geometry">
            <mxPoint x="400" y="570" as="sourcePoint" />
            <mxPoint x="450" y="520" as="targetPoint" />
          </mxGeometry>
        </mxCell>
        <mxCell id="1I366Hc9zdINXWI0nnkP-53" value="" style="endArrow=classic;html=1;entryX=0;entryY=0.5;entryDx=0;entryDy=0;exitX=1;exitY=0.5;exitDx=0;exitDy=0;" edge="1" parent="1" source="1I366Hc9zdINXWI0nnkP-43" target="1I366Hc9zdINXWI0nnkP-47">
          <mxGeometry width="50" height="50" relative="1" as="geometry">
            <mxPoint x="400" y="570" as="sourcePoint" />
            <mxPoint x="450" y="520" as="targetPoint" />
          </mxGeometry>
        </mxCell>
        <mxCell id="1I366Hc9zdINXWI0nnkP-54" value="" style="endArrow=classic;html=1;exitX=0.5;exitY=0;exitDx=0;exitDy=0;" edge="1" parent="1" source="1I366Hc9zdINXWI0nnkP-25">
          <mxGeometry width="50" height="50" relative="1" as="geometry">
            <mxPoint x="400" y="570" as="sourcePoint" />
            <mxPoint x="435" y="260" as="targetPoint" />
          </mxGeometry>
        </mxCell>
        <mxCell id="1I366Hc9zdINXWI0nnkP-55" value="Softmax" style="text;html=1;strokeColor=none;fillColor=none;align=center;verticalAlign=middle;whiteSpace=wrap;rounded=0;" vertex="1" parent="1">
          <mxGeometry x="680" y="300" width="80" height="20" as="geometry" />
        </mxCell>
        <mxCell id="1I366Hc9zdINXWI0nnkP-56" value="" style="endArrow=classic;html=1;exitX=0.5;exitY=0;exitDx=0;exitDy=0;" edge="1" parent="1" source="1I366Hc9zdINXWI0nnkP-37">
          <mxGeometry width="50" height="50" relative="1" as="geometry">
            <mxPoint x="400" y="570" as="sourcePoint" />
            <mxPoint x="505" y="260" as="targetPoint" />
          </mxGeometry>
        </mxCell>
        <mxCell id="1I366Hc9zdINXWI0nnkP-57" value="" style="endArrow=classic;html=1;exitX=0.5;exitY=0;exitDx=0;exitDy=0;" edge="1" parent="1" source="1I366Hc9zdINXWI0nnkP-41">
          <mxGeometry width="50" height="50" relative="1" as="geometry">
            <mxPoint x="400" y="570" as="sourcePoint" />
            <mxPoint x="575" y="260" as="targetPoint" />
          </mxGeometry>
        </mxCell>
        <mxCell id="1I366Hc9zdINXWI0nnkP-58" value="" style="endArrow=classic;html=1;exitX=0.5;exitY=0;exitDx=0;exitDy=0;" edge="1" parent="1" source="1I366Hc9zdINXWI0nnkP-45">
          <mxGeometry width="50" height="50" relative="1" as="geometry">
            <mxPoint x="400" y="570" as="sourcePoint" />
            <mxPoint x="645" y="260" as="targetPoint" />
          </mxGeometry>
        </mxCell>
        <mxCell id="1I366Hc9zdINXWI0nnkP-59" value="Text" style="text;html=1;strokeColor=none;fillColor=none;align=center;verticalAlign=middle;whiteSpace=wrap;rounded=0;" vertex="1" parent="1">
          <mxGeometry x="110" y="500" width="40" height="20" as="geometry" />
        </mxCell>
        <mxCell id="1I366Hc9zdINXWI0nnkP-60" value="Text" style="text;html=1;strokeColor=none;fillColor=none;align=center;verticalAlign=middle;whiteSpace=wrap;rounded=0;" vertex="1" parent="1">
          <mxGeometry x="185" y="500" width="40" height="20" as="geometry" />
        </mxCell>
        <mxCell id="1I366Hc9zdINXWI0nnkP-61" value="Text" style="text;html=1;strokeColor=none;fillColor=none;align=center;verticalAlign=middle;whiteSpace=wrap;rounded=0;" vertex="1" parent="1">
          <mxGeometry x="255" y="500" width="40" height="20" as="geometry" />
        </mxCell>
        <mxCell id="1I366Hc9zdINXWI0nnkP-62" value="Text" style="text;html=1;strokeColor=none;fillColor=none;align=center;verticalAlign=middle;whiteSpace=wrap;rounded=0;" vertex="1" parent="1">
          <mxGeometry x="415" y="430" width="40" height="20" as="geometry" />
        </mxCell>
        <mxCell id="1I366Hc9zdINXWI0nnkP-63" value="Text" style="text;html=1;strokeColor=none;fillColor=none;align=center;verticalAlign=middle;whiteSpace=wrap;rounded=0;" vertex="1" parent="1">
          <mxGeometry x="485" y="430" width="40" height="20" as="geometry" />
        </mxCell>
        <mxCell id="1I366Hc9zdINXWI0nnkP-64" value="Text" style="text;html=1;strokeColor=none;fillColor=none;align=center;verticalAlign=middle;whiteSpace=wrap;rounded=0;" vertex="1" parent="1">
          <mxGeometry x="555" y="430" width="40" height="20" as="geometry" />
        </mxCell>
        <mxCell id="1I366Hc9zdINXWI0nnkP-65" value="Text" style="text;html=1;strokeColor=none;fillColor=none;align=center;verticalAlign=middle;whiteSpace=wrap;rounded=0;" vertex="1" parent="1">
          <mxGeometry x="625" y="430" width="40" height="20" as="geometry" />
        </mxCell>
        <mxCell id="1I366Hc9zdINXWI0nnkP-66" value="Text" style="text;html=1;strokeColor=none;fillColor=none;align=center;verticalAlign=middle;whiteSpace=wrap;rounded=0;" vertex="1" parent="1">
          <mxGeometry x="415" y="240" width="40" height="20" as="geometry" />
        </mxCell>
        <mxCell id="1I366Hc9zdINXWI0nnkP-67" value="Text" style="text;html=1;strokeColor=none;fillColor=none;align=center;verticalAlign=middle;whiteSpace=wrap;rounded=0;" vertex="1" parent="1">
          <mxGeometry x="485" y="240" width="40" height="20" as="geometry" />
        </mxCell>
        <mxCell id="1I366Hc9zdINXWI0nnkP-68" value="Text" style="text;html=1;strokeColor=none;fillColor=none;align=center;verticalAlign=middle;whiteSpace=wrap;rounded=0;" vertex="1" parent="1">
          <mxGeometry x="555" y="240" width="40" height="20" as="geometry" />
        </mxCell>
        <mxCell id="1I366Hc9zdINXWI0nnkP-69" value="Text" style="text;html=1;strokeColor=none;fillColor=none;align=center;verticalAlign=middle;whiteSpace=wrap;rounded=0;" vertex="1" parent="1">
          <mxGeometry x="625" y="240" width="40" height="20" as="geometry" />
        </mxCell>
      </root>
    </mxGraphModel>
  </diagram>
</mxfile>
